Coordinates
version=1
nRows=37
nColumns=19
inDegrees=yes

Units are S.I. units (second, meters, Newtons, ...)
If the header above contains a line with 'inDegrees', this indicates whether rotational values are in degrees (yes) or radians (no).

endheader
time	pelvis_to_ground_rx	pelvis_to_ground_ry	pelvis_to_ground_rz	pelvis_to_ground_tx	pelvis_to_ground_ty	pelvis_to_ground_tz	left_hip_abduction	left_hip_rotation	left_hip_flexion	left_knee_flexion	left_ankle_flexion	left_subtalar_angle	right_hip_abduction	right_hip_rotation	right_hip_flexion	right_knee_flexion	right_ankle_flexion	right_subtalar_angle
      0.00000000	     99.92039381	      5.10498596	     -6.90970721	     -2.05835371	     -0.67396260	      0.71342400	    -17.37557672	     -6.23243215	     28.36430822	    -37.31307219	      5.75120057	    -11.81280096	     -1.65537835	    -18.45473627	     14.40675790	    -63.13115614	     -1.26814948	     -2.55470796
      0.01000000	     99.82584788	      5.35243192	     -7.11570182	     -2.04749001	     -0.67362396	      0.71680213	    -17.04303367	     -6.61555163	     26.81263141	    -35.84230806	      5.64386362	    -11.69734903	     -0.74764729	    -17.98265617	     16.81642834	    -63.82467357	     -0.65040303	     -2.98133734
      0.02000000	     99.74744183	      5.61452584	     -7.16056109	     -2.03657810	     -0.67327662	      0.71993877	    -16.75348607	     -6.96832866	     25.08885649	    -34.35194474	      5.50661769	    -11.50809195	      0.01165838	    -17.48957722	     18.96022039	    -64.38182517	      0.16392905	     -3.45719162
      0.03000000	     99.68039249	      5.88425074	     -7.10668331	     -2.02565873	     -0.67293239	      0.72282824	    -16.50685587	     -7.25580920	     23.29252217	    -32.88783546	      5.35451743	    -11.26468201	      0.63791082	    -16.96544168	     20.91606760	    -64.78217923	      0.96650090	     -3.97115428
      0.04000000	     99.57869377	      6.20324246	     -6.94320116	     -2.01475312	     -0.67261697	      0.72549363	    -16.23026846	     -7.65236927	     21.39805142	    -31.45611235	      5.32858246	    -11.07857972	      1.17516529	    -16.43386305	     22.66227001	    -64.97058457	      1.23009756	     -4.20775769
      0.05000000	     99.41694647	      6.56590463	     -6.77404893	     -2.00389660	     -0.67237455	      0.72794224	    -15.89997974	     -8.10125943	     19.56748088	    -30.12968520	      5.24536731	    -10.84238404	      1.67967585	    -15.84206777	     24.31547581	    -64.92029062	      1.55278253	     -4.61490868
      0.06000000	     99.21429756	      6.95195715	     -6.51945304	     -1.99308976	     -0.67219129	      0.73012540	    -15.56851541	     -8.40673605	     17.76568689	    -28.96567901	      5.01301728	    -10.39604419	      2.08364664	    -15.15301315	     25.78025963	    -64.61320870	      1.50194109	     -6.25534643
      0.07000000	     99.01103502	      7.39309564	     -6.36092130	     -1.98236363	     -0.67204947	      0.73209791	    -15.21752190	     -8.92891848	     16.10269708	    -27.88975317	      5.00620821	    -10.21920507	      2.39570977	    -14.48223744	     27.27692779	    -64.07252589	      1.47461040	     -6.47918229
      0.08000000	     98.79088309	      7.87403941	     -6.18782501	     -1.97170501	     -0.67198286	      0.73381546	    -14.86847691	     -9.36592265	     14.53969071	    -26.98664614	      4.69641597	     -9.81193729	      2.58428040	    -13.73193303	     28.64929276	    -63.24418183	      0.78610705	     -8.17183424
      0.09000000	     98.60275095	      8.41322505	     -5.98051828	     -1.96108194	     -0.67194449	      0.73526274	    -14.56527295	     -9.87720378	     12.99314029	    -26.19583287	      4.74977641	     -9.68216368	      2.60015724	    -13.04731292	     29.89166800	    -62.17416279	      0.61197316	     -8.29992561
      0.10000000	     98.43787542	      8.99722354	     -5.81811905	     -1.95051899	     -0.67196134	      0.73645582	    -14.28707105	    -10.38360054	     11.57659906	    -25.54853364	      4.71143100	     -9.49561199	      2.46963000	    -12.36055466	     31.07116711	    -60.83003940	      0.35408956	     -8.54130308
      0.11000000	     98.31131790	      9.63036153	     -5.68116637	     -1.93998272	     -0.67203571	      0.73737910	    -14.04659570	    -10.82653731	     10.26533674	    -25.03364148	      4.63006522	     -9.27830903	      2.17754674	    -11.70795215	     32.15335142	    -59.21315127	      0.00830774	     -8.82343648
      0.12000000	     98.19973128	     10.28521238	     -5.57995930	     -1.92948073	     -0.67218075	      0.73803638	    -13.81234499	    -11.07252927	      9.12387681	    -24.72041565	      4.37726278	     -8.76127617	      1.75119450	    -11.03038769	     33.12972458	    -57.29597931	     -1.37593852	     -9.99268645
      0.13000000	     98.17855114	     10.97958023	     -5.47618067	     -1.91894495	     -0.67233293	      0.73840184	    -13.66917113	    -11.41727923	      7.96610540	    -24.43619731	      4.44092612	     -8.64640947	      1.13292223	    -10.47468387	     33.96589366	    -55.15939202	     -1.42616694	    -10.01141722
      0.14000000	     98.20272552	     11.70275475	     -5.39514556	     -1.90836282	     -0.67252476	      0.73849744	    -13.55920604	    -11.70464377	      6.87708709	    -24.24669692	      4.44013915	     -8.46061843	      0.38896411	     -9.99634328	     34.66474060	    -52.77208774	     -1.61387623	     -9.91502514
      0.15000000	     98.27190665	     12.43546715	     -5.31770753	     -1.89770615	     -0.67274785	      0.73831600	    -13.48532020	    -11.93943036	      5.82663026	    -24.14417431	      4.42721365	     -8.24518091	     -0.46581423	     -9.58148939	     35.19563527	    -50.15944073	     -1.85724106	     -9.71592442
      0.16000000	     98.37495131	     13.16395479	     -5.27113549	     -1.88692422	     -0.67299510	      0.73786432	    -13.41907944	    -12.02850524	      4.85774272	    -24.13368170	      4.46863387	     -7.74778570	     -1.38528617	     -9.24816567	     35.58716148	    -47.35516701	     -2.42030444	     -9.18070399
      0.17000000	     98.52659500	     13.88305183	     -5.16721079	     -1.87596799	     -0.67324792	      0.73711924	    -13.41403959	    -12.19871518	      3.78998030	    -24.13264903	      4.54126745	     -7.53641782	     -2.38225242	     -8.98203768	     35.74063832	    -44.42376231	     -2.60574654	     -8.89711985
      0.18000000	     98.67335771	     14.59316714	     -5.08459687	     -1.86480606	     -0.67354386	      0.73612254	    -13.37427154	    -12.28730552	      2.78188836	    -24.21576232	      4.73186450	     -7.08168444	     -3.34393293	     -8.81614064	     35.75301272	    -41.39689958	     -3.18813122	     -8.14707006
      0.19000000	     98.87119170	     15.23335716	     -4.91862150	     -1.85340289	     -0.67380713	      0.73482432	    -13.41393045	    -12.39813353	      1.64010564	    -24.29845352	      4.84495289	     -6.88283720	     -4.35855970	     -8.62215504	     35.52619608	    -38.39121148	     -3.44941700	     -7.78596029
      0.20000000	     99.02192441	     15.87425270	     -4.76223165	     -1.84170739	     -0.67411969	      0.73330209	    -13.38516319	    -12.51904769	      0.54180234	    -24.48015975	      5.12284942	     -6.48174624	     -5.23020522	     -8.58006686	     35.19066737	    -35.44680719	     -4.19532223	     -7.00489280
      0.21000000	     99.17827303	     16.43752983	     -4.53257880	     -1.82970607	     -0.67442216	      0.73152331	    -13.38438568	    -12.63076972	     -0.64871777	    -24.69753053	      5.33214251	     -6.21125546	     -6.05111481	     -8.52019218	     34.68618814	    -32.69217758	     -4.67575419	     -6.52750469
      0.22000000	     99.32273904	     16.90938328	     -4.29537319	     -1.81741965	     -0.67472102	      0.72954113	    -13.38589732	    -12.73632983	     -1.83070571	    -24.99758697	      5.49473310	     -6.03154643	     -6.78759819	     -8.40424019	     34.10737434	    -30.19184287	     -5.13250984	     -6.13611219
      0.23000000	     99.37555179	     17.36865102	     -4.11719160	     -1.80482214	     -0.67507976	      0.72744901	    -13.27132029	    -12.86467089	     -2.86917213	    -25.45913690	      5.85250911	     -5.64380270	     -7.26945753	     -8.45410018	     33.56612920	    -27.99328854	     -6.04493991	     -5.53123550
      0.24000000	     99.37642903	     17.73097309	     -3.86631038	     -1.79193753	     -0.67542614	      0.72522347	    -13.13241658	    -12.92504551	     -3.92196364	    -26.04870317	      5.95292211	     -5.50686208	     -7.61118061	     -8.45296525	     32.94678974	    -26.19138421	     -6.31835432	     -5.33985861
      0.25000000	     99.28876922	     18.03121329	     -3.67118808	     -1.77880731	     -0.67581352	      0.72297373	    -12.89257069	    -12.94235280	     -4.79089327	    -26.84892960	      6.05097712	     -5.36933062	     -7.72558666	     -8.49569585	     32.39881655	    -24.78451438	     -6.69018410	     -5.13724939
      0.26000000	     99.09886214	     18.29104182	     -3.65741046	     -1.76544659	     -0.67627850	      0.72082259	    -12.52458768	    -13.02486894	     -5.34928218	    -27.84744493	      6.05596942	     -5.31001580	     -7.59347261	     -8.57555642	     32.03231207	    -23.73826971	     -6.82669212	     -5.06636936
      0.27000000	     98.81917050	     18.42331330	     -3.54154220	     -1.75194909	     -0.67672349	      0.71863190	    -12.02596534	    -12.67447675	     -5.73357305	    -29.21892061	      6.01277032	     -5.20718930	     -7.30092673	     -8.54212593	     31.61589171	    -23.14373075	     -7.02069463	     -5.02706561
      0.28000000	     98.41743978	     18.50949061	     -3.56228224	     -1.73829322	     -0.67724783	      0.71662948	    -11.36806849	    -12.26988101	     -5.78263544	    -30.84733439	      5.86327998	     -5.09891873	     -6.78599779	     -8.45974126	     31.32308342	    -22.85138166	     -7.01681934	     -5.12025377
      0.29000000	     97.89462012	     18.52816322	     -3.66982140	     -1.72453195	     -0.67784707	      0.71481058	    -10.53405305	    -11.64415022	     -5.47748717	    -32.80402370	      5.41238501	     -4.61310020	     -6.08934510	     -8.24081894	     31.10317746	    -22.83606609	     -6.67765706	     -5.60660376
      0.30000000	     97.24816006	     18.45219323	     -3.73633030	     -1.71071626	     -0.67847714	      0.71313992	     -9.54851934	    -10.71352123	     -4.93539531	    -35.09395729	      5.10423889	     -4.63776979	     -5.22274172	     -7.89032034	     30.85153435	    -23.09158464	     -6.40306209	     -5.82524955
      0.31000000	     96.47414276	     18.34268886	     -3.89862039	     -1.69687518	     -0.67922238	      0.71174393	     -8.41350021	     -9.65135105	     -4.03923466	    -37.67976146	      4.17317290	     -4.38951593	     -4.19217130	     -7.39836163	     30.64865094	    -23.48421161	     -5.52472364	     -6.47940265
      0.32000000	     95.58468118	     18.14050927	     -4.01186008	     -1.68306586	     -0.68001178	      0.71057055	     -7.17232380	     -8.32390136	     -2.93407849	    -40.54757348	      3.22273943	     -4.34755238	     -3.03274275	     -6.74186848	     30.36901528	    -23.99464992	     -4.73022697	     -7.01367367
      0.33000000	     94.58699059	     17.87161631	     -4.13540958	     -1.66933578	     -0.68087186	      0.70969070	     -5.86124415	     -6.85294982	     -1.58966031	    -43.64997234	      2.08113243	     -4.40388060	     -1.75041270	     -5.95434386	     30.04279760	    -24.52062819	     -3.84016008	     -7.55099007
      0.34000000	     93.49984496	     17.51645274	     -4.21556596	     -1.65573332	     -0.68177874	      0.70911365	     -4.53323601	     -5.25298506	     -0.09586460	    -46.92443176	      0.73586069	     -4.60460759	     -0.37785398	     -5.04459938	     29.60144567	    -24.99613146	     -2.89282558	     -8.06805862
      0.35000000	     92.35575300	     17.08048080	     -4.31577868	     -1.64231405	     -0.68272137	      0.70888763	     -3.24560203	     -3.59757199	      1.58347033	    -50.31760756	     -0.71054408	     -4.97019950	      1.05923847	     -4.06580503	     29.09032780	    -25.35056613	     -1.96787213	     -8.51543611
      0.36000000	     91.17981648	     16.55930077	     -4.44113973	     -1.62911542	     -0.68368346	      0.70903636	     -2.04622647	     -1.92163901	      3.42425698	    -53.76680716	     -2.17370594	     -5.48632512	      2.53099822	     -3.05612928	     28.49312597	    -25.51642591	     -1.11093781	     -8.86423909
